<svg width="48" height="48" viewBox="0 0 48 48" fill="none" xmlns="http://www.w3.org/2000/svg">
<circle cx="24" cy="24" r="24" fill="#FEF7EC"/>
<path fill-rule="evenodd" clip-rule="evenodd" d="M22.0328 0.0679854C21.7909 0.088309 21.5536 0.111117 21.3208 0.136407C20.2094 0.259884 19.1209 0.459271 18.0606 0.729267C13.7917 1.89378 11.8125 4.3472 11.8125 8.05294C11.8125 13.0247 16.5975 17.0551 22.5 17.0551C22.7521 17.0551 23.0022 17.0477 23.25 17.0333V0C22.8416 0.012539 22.4358 0.0352829 22.0328 0.0679854ZM25.125 0.0144086V21.1811H47.837C46.4872 9.61437 36.9168 0.558652 25.125 0.0144086ZM43.101 11.9914H27.375C27.375 11.9914 27.3688 12.0388 27.3627 12.1274C27.3521 12.2819 27.3417 12.5615 27.3648 12.9331C27.4549 14.3803 28.0532 17.2223 31.125 19.4933H35.25V19.4932L39.3624 19.4932C40.9643 18.3053 41.8914 16.9613 42.4243 15.7423C42.7218 15.0619 42.8964 14.4204 42.9969 13.8668C43.149 13.0295 43.1315 12.3932 43.1132 12.1274C43.1072 12.0388 43.101 11.9914 43.101 11.9914Z" fill="#D93520"/>
<path d="M9.76017 4.66858C4.55072 8.51533 0.952149 14.4191 0.163048 21.1811H23.25V19.6626C23.0018 19.6746 22.7517 19.6807 22.5 19.6807C15.1477 19.6807 9.1875 14.4748 9.1875 8.05293C9.1875 6.87577 9.38777 5.73946 9.76017 4.66858Z" fill="black"/>
<path d="M48 23.9942C48 25.9319 47.7705 27.8159 47.3372 29.6206H40.5V28.4953C43.3125 27.1825 44.25 24.7444 44.25 24.7444H27.75C27.75 24.7444 28.6875 27.1825 31.5 28.4953V29.6206H25.125V23.0565H47.982C47.994 23.3676 48 23.6802 48 23.9942Z" fill="black"/>
<path d="M27.75 42.7487V40.4982H20.25V42.7487H27.75Z" fill="black"/>
<path fill-rule="evenodd" clip-rule="evenodd" d="M24 48C13.3643 48 4.34452 41.0801 1.19514 31.496H46.8049C43.6555 41.0801 34.6357 48 24 48ZM6.5625 34.4968C6.04473 34.4968 5.625 34.9166 5.625 35.4345C5.625 35.9524 6.04473 36.3722 6.5625 36.3722H41.4375C41.9553 36.3722 42.375 35.9524 42.375 35.4345C42.375 34.9166 41.9553 34.4968 41.4375 34.4968H6.5625ZM12.75 39.5605C12.75 39.0426 13.1697 38.6228 13.6875 38.6228H34.3125C34.8303 38.6228 35.25 39.0426 35.25 39.5605C35.25 40.0784 34.8303 40.4982 34.3125 40.4982H29.625V43.6865C29.625 44.2044 29.2053 44.6242 28.6875 44.6242H19.3125C18.7947 44.6242 18.375 44.2044 18.375 43.6865V40.4982H13.6875C13.1697 40.4982 12.75 40.0784 12.75 39.5605Z" fill="black"/>
<path fill-rule="evenodd" clip-rule="evenodd" d="M0 23.9942C0 25.9319 0.229511 27.8159 0.662824 29.6206H23.25V23.0565H0.0179744C0.00602795 23.3676 0 23.6802 0 23.9942ZM3.9375 27.3701C4.86948 27.3701 5.625 26.6144 5.625 25.6822C5.625 24.7499 4.86948 23.9942 3.9375 23.9942C3.00552 23.9942 2.25 24.7499 2.25 25.6822C2.25 26.6144 3.00552 27.3701 3.9375 27.3701ZM10.5 25.6822C10.5 26.6144 9.74448 27.3701 8.8125 27.3701C7.88052 27.3701 7.125 26.6144 7.125 25.6822C7.125 24.7499 7.88052 23.9942 8.8125 23.9942C9.74448 23.9942 10.5 24.7499 10.5 25.6822Z" fill="black"/>
<path fill-rule="evenodd" clip-rule="evenodd" d="M42.9969 13.8668H27.4794C27.5802 14.4204 27.7554 15.0618 28.0537 15.7423H42.4243C42.7218 15.0618 42.8964 14.4204 42.9969 13.8668Z" fill="black"/>
</svg>
